<?xml version="1.0" encoding="UTF-8" standalone="no"?>
<svg
   xmlns:dc="http://purl.org/dc/elements/1.1/"
   xmlns:cc="http://creativecommons.org/ns#"
   xmlns:rdf="http://www.w3.org/1999/02/22-rdf-syntax-ns#"
   xmlns:svg="http://www.w3.org/2000/svg"
   xmlns="http://www.w3.org/2000/svg"
   xmlns:xlink="http://www.w3.org/1999/xlink"
   xmlns:sodipodi="http://sodipodi.sourceforge.net/DTD/sodipodi-0.dtd"
   xmlns:inkscape="http://www.inkscape.org/namespaces/inkscape"
   version="1.1"
   id="svg2960"
   sodipodi:docname="ectl-logo-symbol.svg"
   inkscape:version="1.0.1 (c497b03c, 2020-09-10)"
   x="0px"
   y="0px"
   width="745.8186"
   height="653.88147"
   viewBox="0 0 745.8186 653.88148"
   enable-background="new 0 0 800 810.43"
   xml:space="preserve"><metadata
   id="metadata130"><rdf:RDF><cc:Work
       rdf:about=""><dc:format>image/svg+xml</dc:format><dc:type
         rdf:resource="http://purl.org/dc/dcmitype/StillImage" /><dc:title></dc:title></cc:Work></rdf:RDF></metadata>
<defs
   id="defs99">
	
	
		<inkscape:perspective
   id="perspective2968"
   inkscape:vp_z="744.09448 : 369.63257 : 1"
   inkscape:vp_y="0 : 1000 : 0"
   inkscape:vp_x="0 : 369.63257 : 1"
   sodipodi:type="inkscape:persp3d"
   inkscape:persp3d-origin="372.04724 : 194.23887 : 1">
		</inkscape:perspective>
	
		<inkscape:perspective
   id="perspective2915"
   inkscape:vp_z="1 : -156.04853 : 1"
   inkscape:vp_y="0 : 1000 : 0"
   inkscape:vp_x="0 : -156.04853 : 1"
   sodipodi:type="inkscape:persp3d"
   inkscape:persp3d-origin="0.5 : -156.21519 : 1">
		</inkscape:perspective>
</defs>
<sodipodi:namedview
   showgrid="false"
   inkscape:cy="513.78406"
   inkscape:cx="376.47058"
   inkscape:zoom="0.5"
   borderopacity="1.0"
   bordercolor="#000000"
   pagecolor="#ffffff"
   id="base"
   inkscape:window-maximized="1"
   inkscape:window-y="23"
   inkscape:window-x="0"
   inkscape:window-height="855"
   inkscape:window-width="1440"
   inkscape:current-layer="layer1"
   inkscape:document-units="px"
   inkscape:pageshadow="0"
   inkscape:pageopacity="1.0"
   inkscape:document-rotation="0">
	</sodipodi:namedview>
<g
   id="layer1"
   transform="translate(26.47058,-88.323492)"
   inkscape:label="Layer 1"
   inkscape:groupmode="layer">
	<g
   id="g3677"
   transform="matrix(6.3813359,0,0,-6.3813359,-777.2239,1922.3775)">
		<g
   id="g140"
   transform="translate(224.0294,266.0411)">
			<path
   id="path142"
   fill="#00426c"
   d="m 0,0 c -9.297,12.939 -24.477,21.368 -41.627,21.368 -28.287,0 -51.22,-22.933 -51.22,-51.22 0,-3.596 0.371,-7.1 1.075,-10.484 l 51.499,22.837 h -28.169 c 4.695,10.069 14.905,17.056 26.747,17.056 8.133,0 15.499,-3.293 20.836,-8.612 z" />
		</g>
		<g
   id="g144"
   transform="translate(234.5233,268.5568)">
			<path
   id="path146"
   fill="#008dbb"
   d="m 0,0 -51.447,-52.429 h -65.428 z" />
		</g>
		<g
   id="g148">
			<g
   id="g115">
				<defs
   id="defs107">
					<rect
   id="SVGID_1_"
   x="-2265.2471"
   y="-1601.6899"
   width="5372.3828"
   height="3798.655" />
				</defs>
				<clipPath
   id="SVGID_2_">
					<use
   xlink:href="#SVGID_1_"
   overflow="visible"
   id="use109"
   x="0"
   y="0"
   width="100%"
   height="100%" />
				</clipPath>
				<g
   id="g150"
   clip-path="url(#SVGID_2_)">
					<g
   id="g156"
   transform="translate(182.2162,206.6893)">
						<path
   id="path158"
   fill="#00426c"
   d="m 0,0 c -7.22,0 -13.837,2.525 -19.013,6.731 h -27.512 c 8.549,-16.886 26.203,-28.479 46.593,-28.479 20.986,0 39.086,12.215 47.331,29.901 H 20.657 C 15.276,3.103 8.005,0 0,0" />
					</g>
				</g>
			</g>
		</g>
		<g
   id="g200">
			<g
   id="g124">
				<defs
   id="defs119">
					<rect
   id="SVGID_3_"
   x="-2265.2471"
   y="-1601.6899"
   width="5372.3828"
   height="3798.655" />
				</defs>
				<clipPath
   id="SVGID_4_">
					<use
   xlink:href="#SVGID_3_"
   overflow="visible"
   id="use121"
   x="0"
   y="0"
   width="100%"
   height="100%" />
				</clipPath>
			</g>
		</g>
	</g>
</g>
</svg>
