<svg width="1285" height="177" style="background-color:transparent" fill="#003366" xmlns="http://www.w3.org/2000/svg" xmlns:xlink="http://www.w3.org/1999/xlink">
  <g transform="translate(0, 0)"><svg width="200" height="176" style="background-color:transparent" fill="#003366">
  <svg viewBox="0 0 186, 164" width="200" height="176" x="0" y="0">
  <title>EUROCONTROL - Logo</title>
    <g>
	    <path fill="#003366" d="M169.7,34C155,13.3,130.6,0,103.4,0c-45,0-81.6,36.5-81.6,81.6c0,5.7,0.6,11.3,1.7,&#10;          16.7l82.2-36.5h-45c7.4-15.9,23.8-27.2,42.5-27.2c13,0,24.6,5.4,33.1,13.6L169.7,34z"/>
	    <polygon fill="#2990ea" points="186.4,30 104.2,113.6 0,113.6"/>
	    <path fill="#003366" d="M102.8,129.1c-11.5,0-22-4-30.2-10.7H28.8c13.6,26.9,41.7,45.3,74.1,45.3c33.4,0,&#10;          62.2-19.4,75.3-47.6h-42.5C127.1,124.2,115.5,129.1,102.8,129.1"/>
    </g>
  </svg>
</svg></g>  
  <g transform="translate(200, 53)"><svg width="661" height="71" style="background-color:transparent" fill="#003366">

  <title>EUROCONTROL - Wordmark</title>

  <svg viewBox="0 0 51.276198 5.4768999" width="661" height="71" x="0" y="0">

    <path d="M 0.97900007,3.0445676 V 4.6989685 H 3.1486 V 5.4710917 H 0 V 0.01151652 H 3.0692&#10;          V 0.78363978 H 0.97900007 V 2.2725485 H 2.9369 v 0.7720191 z" id="letter-E" fill="#003366"/>
    <path fill="#003366" d="M 4.9477,0.00998067 V 3.1635342 &#10;          c 0,1.0873861 0.4498,1.5495484 1.0584,1.5495484 0.6879,0 1.1112,-0.4621623 1.1112,-1.5495484&#10;          V 0.00998067 h 0.979 V 3.0819519&#10;          c 0,1.6854845 -0.8202,2.3922907 -2.0902,2.3922907 -1.1907,0 -2.0373,-0.6795777 -2.0373,-2.3922907&#10;          V 0.00998067 Z" id="letter-U"/>
    <path fill="#003366" d="M 9.234,0.1808192 c 0.3704,-0.0823594 0.8996,-0.16461507 1.428701,-0.16461507 0.740899,0 1.269999,&#10;          0.16461507 1.640499,0.46646123 0.291,0.24707819 0.4497,0.63128374 0.4497,1.09784874 0,0.7135394 -0.4497,&#10;          1.1526166 -0.9789,1.3173354 0.3704,0.1646151 0.6085,0.5488206 0.7408,1.0153856 0.1588,0.6861554 0.2911,&#10;          1.4154577 0.3704,1.5801766 L 11.9063,5.4811464 C 11.8269,5.3164275 11.6946,4.7640056 11.5359,&#10;          4.1603133 11.3771,3.4466701 11.165501,3.2271834 10.556901,3.2271834 h -0.4498 V 5.4776488&#10;          H 9.1282 V 0.1808192 Z m 0.8996,2.4150804 h 0.6085 c 0.6879,0 1.0584,-0.3842055 1.0584,-0.9330261 0,&#10;          -0.6312838 -0.3705,-0.85087428 -1.0584,-0.85087428 -0.291,0 -0.5291,0 -0.6085,0.0823594 z" id="letter-R"/>
    <path fill="#003366" d="M 15.7427,5.4769 C 14.2346,5.4769 13.335,4.3657 13.335,2.7782 13.335,1.1907 14.3934,0 15.7957,0&#10;          c 1.508099,0 2.4077,1.1113 2.4077,2.6194 0.1058,1.8786 -1.0319,2.8575 -2.4607,2.8575 &#10;          m 0.0794,-0.7673 c 0.8996,0 1.4288,-0.8202 1.4288,-1.9579 0,-0.979 -0.5292,-1.9579 -1.4288,&#10;          -1.9579 -0.8995,0 -1.4287,0.8996 -1.4287,1.9579 -0.0794,1.0583 0.4498,1.9579 1.4287,1.9579" id="letter-O"/>
    <path fill="#003366" d="M 22.859999,5.2360947 c -0.2116,0.080302 -0.7408,0.2408053 -1.3493,0.2408053 -1.640499,0&#10;          -2.698799,-1.0703244 -2.698799,-2.6491616 0,-1.7393404 1.1906,-2.80966485 2.778099,-2.80966485&#10;          0.6086,0 1.0584,0.16060429 1.27,0.2408053 l -0.2116,0.74931815 c -0.2382,-0.0803022&#10;          -0.6086,-0.24090647 -1.0584,-0.24090647 -1.058299,0 -1.799099,0.69581707 -1.799099,1.98024677&#10;          0,1.1238255 0.687899,1.8998436 1.799099,1.8998436 0.3705,0 0.7409,-0.080302 1.0584,-0.1605032 z" id="letter-C"/>
    <use fill="fill=#003366" xlink:href="#letter-O" transform="translate(9.8165 0)" id="letter-O2"/>
    <path fill="#003366" d="M 28.945199,5.4710917 V 0.02388181 H 30.0562 l 1.35,2.33841039 c 0.37,0.6328234 0.688,1.238092&#10;          0.898999,1.7882511 -0.079,-0.7152796 -0.079,-1.4030045 -0.079,-2.25585 V 0.02388181&#10;          h 0.9 V 5.4710917 h -0.979 l -1.429,-2.4209706 C 30.427199,2.4174017 30.0302,1.8121331&#10;          29.8182,1.1793096 c 0.08,0.7153837 0.08,1.4031086 0.08,2.3385144 v 1.9532677 z" id="letter-N"/>
    <path fill="#003366" d="M 36.1422,0.87662666 V 5.4710916 h -0.979 V 0.87662666 h -1.508 V 0.02378181 h 3.969 v 0.85284485 z" id="letter-T"/>
    <use fill="fill=#003366" xlink:href="#letter-R" transform="translate(28.9982 0)" id="letter-R2"/>
    <use fill="fill=#003366" xlink:href="#letter-O" transform="translate(9.8165 0)" id="letter-O3"/>
    <use fill="fill=#003366" xlink:href="#letter-O" transform="translate(29.07749 0)" id="letter-O2"/>
    <path fill="#003366" d="m 48.207189,0.01151652 h -0.08 0.979 V 4.6163266 h 2.17001 v 0.8547651 h -3.06901 z" id="letter-L"/>
  </svg>
</svg></g>  
  </svg>